<?xml version="1.0" encoding="UTF-8"?>
<!DOCTYPE svg PUBLIC "-//W3C//DTD SVG 1.1//EN" "http://www.w3.org/Graphics/SVG/1.1/DTD/svg11.dtd">
<!-- Creator: CorelDRAW 2021 (64-Bit) -->
<svg xmlns="http://www.w3.org/2000/svg" xml:space="preserve" width="84.6666mm" height="16.7832mm" version="1.1" style="shape-rendering:geometricPrecision; text-rendering:geometricPrecision; image-rendering:optimizeQuality; fill-rule:evenodd; clip-rule:evenodd"
viewBox="0 0 114.32 22.66"
 xmlns:xlink="http://www.w3.org/1999/xlink"
 xmlns:xodm="http://www.corel.com/coreldraw/odm/2003">
 <defs>
  <style type="text/css">
   <![CDATA[
    .fil1 {fill:#2661AC}
    .fil3 {fill:#FF8000}
    .fil2 {fill:#2661AC;fill-rule:nonzero}
    .fil0 {fill:#FF8000;fill-rule:nonzero}
   ]]>
  </style>
 </defs>
 <g id="Layer_x0020_1">
  <metadata id="CorelCorpID_0Corel-Layer"/>
  <g id="_2603309363776">
   <path class="fil0" d="M25.04 16.3l11.01 0c0.12,-0.59 0.19,-1.21 0.19,-1.86 0,-4.68 -3.35,-8.19 -7.88,-8.19 -4.9,0 -8.25,3.57 -8.25,8.19 0,4.62 3.29,8.19 8.59,8.19 2.95,0 5.24,-1.09 6.76,-3.19l-3.72 -2.14c-0.62,0.68 -1.71,1.18 -2.98,1.18 -1.71,0 -3.13,-0.56 -3.72,-2.17zm-0.09 -3.47c0.43,-1.58 1.61,-2.45 3.38,-2.45 1.4,0 2.79,0.65 3.29,2.45l-6.67 0zm21.61 -6.57c-2.05,0 -3.6,0.74 -4.43,1.89l0 -1.46 -4.65 0 0 15.97 4.65 0 0 -8.93c0,-2.2 1.18,-3.19 2.88,-3.19 1.49,0 2.7,0.9 2.7,2.82l0 9.3 4.65 0 0 -9.99c0,-4.19 -2.67,-6.42 -5.8,-6.42z"/>
   <path class="fil1" d="M59.67 22.63l0 -9.2 0 -13.43 -4.65 0 0 18.03c0,2.54 2.06,4.6 4.6,4.6 0.02,0 0.03,0 0.05,-0z"/>
   <path class="fil2" d="M94.01 9.33l0 -3.08 -4.65 0 0 16.41 4.65 0 0 -7.59c0,-3.07 2.73,-3.84 4.65,-3.53l0 -5.27c-1.95,0 -4.03,0.99 -4.65,3.07zm14.51 -3.19c-2.05,0 -3.6,0.74 -4.43,1.89l0 -1.78 -4.65 0 0 16.41 4.65 0 0 -9.05c0,-2.2 1.18,-3.19 2.88,-3.19 1.49,0 2.7,0.9 2.7,2.82l0 9.42 4.65 0 0 -10.1c0,-4.19 -2.67,-6.42 -5.8,-6.42z"/>
   <path class="fil2" d="M65.84 16.3l11.01 0c0.12,-0.59 0.19,-1.21 0.19,-1.86 0,-4.68 -3.35,-8.19 -7.88,-8.19 -4.9,0 -8.25,3.57 -8.25,8.19 0,4.62 3.29,8.19 8.59,8.19 2.95,0 5.24,-1.09 6.76,-3.19l-3.72 -2.14c-0.62,0.68 -1.71,1.18 -2.98,1.18 -1.71,0 -3.13,-0.56 -3.72,-2.17zm-0.09 -3.47c0.43,-1.58 1.61,-2.45 3.38,-2.45 1.4,0 2.79,0.65 3.29,2.45l-6.67 0zm23.63 -6.14l0 1.46c-1.02,-1.18 -2.54,-1.89 -4.62,-1.89 -4.06,0 -7.41,3.57 -7.41,8.19 0,4.62 3.35,8.19 7.41,8.19 2.08,0 3.6,-0.71 4.62,-1.89l0 1.46 4.65 0 0 -15.5 -4.65 0zm-3.69 11.53c-2.14,0 -3.69,-1.46 -3.69,-3.78 0,-2.33 1.55,-3.78 3.69,-3.78 2.14,0 3.69,1.46 3.69,3.78 0,2.33 -1.55,3.78 -3.69,3.78z"/>
   <g>
    <path class="fil3" d="M8.62 22.03c1.08,0.78 2.58,0.82 3.71,-0 0.01,-0.01 0.03,-0.02 0.04,-0.03 0.55,-0.41 0.93,-0.96 1.13,-1.57l0 -0c0.31,-0.94 0.17,-2.02 -0.47,-2.88 -0.31,-0.41 -0.7,-0.73 -1.13,-0.95l-0 -0c-0.28,-0.14 -0.58,-0.24 -0.89,-0.29 -0.35,-0.06 -0.71,-0.06 -1.06,-0 -0.3,0.05 -0.6,0.15 -0.89,0.29 -0.16,0.08 -0.32,0.18 -0.47,0.29 -1.13,0.83 -1.54,2.27 -1.13,3.53 0.1,0.32 0.26,0.63 0.47,0.91 0.2,0.27 0.44,0.5 0.7,0.69z"/>
    <path class="fil3" d="M6.22 21.14c-0.75,-1.88 -0.18,-4.1 1.53,-5.37 0.51,-0.38 1.07,-0.63 1.64,-0.77l-3.66 -8.75 -5.74 0 6.22 14.89z"/>
    <path class="fil3" d="M11.56 15c1,0.24 1.93,0.83 2.59,1.72 0.98,1.32 1.14,3.01 0.57,4.43l6.23 -14.9 -5.74 0 -3.66 8.75z"/>
   </g>
  </g>
 </g>
</svg>
